<svg width="110" height="64" viewBox="0 0 110 64" fill="none" xmlns="http://www.w3.org/2000/svg">
<path d="M62.7884 10.1273C67.7859 10.0405 72.7834 10.0047 77.7809 10.0199C81.7284 10.0136 87.416 9.84473 91.146 10.6157C92.201 11.7265 96.8034 18.3535 97.3459 19.7695C98.2684 22.168 99.6084 31.2508 98.7334 33.6953C96.9684 35.7393 92.251 35.805 89.3985 36.3178C89.3685 33.4438 89.5534 31.4178 87.5684 28.9643C86.1884 27.2545 84.1734 26.179 81.9859 25.9848C79.7209 25.756 77.4584 26.4665 75.7309 27.9503C73.0334 30.302 73.061 33.1003 72.806 36.3625C64.551 36.8418 53.8609 36.8438 45.5409 36.94L33.1359 37.0773C33.0284 31.787 31.1684 26.4418 24.9384 26.1965C22.7434 26.115 20.6084 26.923 19.0184 28.4373C16.4484 30.8808 16.2885 33.7923 16.2385 37.1058C14.1485 36.6575 12.2809 36.369 10.1209 35.8558C10.0909 35.6698 10.0634 35.4835 10.0384 35.2968C9.78344 33.3713 10.8335 24.11 12.1135 23.4285C18.1435 20.2168 26.831 20.508 33.491 19.242C35.9785 18.7695 38.911 16.4263 41.146 15.1953C48.171 10.0243 54.3759 10.5105 62.7884 10.1273Z" fill="#3D3D3E"/>
<path d="M55.8585 11.273C62.906 10.67 70.246 10.984 77.3235 10.8763C79.4935 10.8432 81.766 10.8646 83.9285 10.9785C92.136 10.9076 90.8559 11.2098 95.4059 18.0108C98.0734 21.9993 97.526 27.0125 98.261 31.6255C98.7685 34.907 93.3135 34.8628 91.0735 35.1315L90.5385 35.0838C90.1585 34.2853 90.386 33.6575 90.146 32.6718C89.346 29.4 87.3634 26.9175 84.1609 25.7805C81.9309 24.982 79.4734 25.1138 77.3409 26.1463C74.2809 27.6558 71.501 31.775 72.206 35.252C70.7935 35.7488 62.5985 35.5603 60.481 35.6415C51.681 35.9798 42.7685 36.0005 33.976 36.4705C33.811 34.211 33.631 33.093 33.141 30.9263C28.671 22.8583 18.3284 23.8815 15.6559 32.7413C15.3884 33.6303 15.3259 35.2263 15.2534 36.1895C14.0034 35.839 12.1559 35.562 10.8384 35.3245C10.6834 30.881 11.5885 28.1768 12.5185 23.8093C17.366 21.4485 29.2135 21.127 34.4585 19.768C36.1185 19.338 43.4484 14.6603 45.5884 13.4088C48.7634 11.5776 52.2935 11.4779 55.8585 11.273Z" fill="white"/>
<path d="M34.4709 31.2625C45.4009 29.8433 57.0685 30.1343 68.0235 28.34C71.1785 27.8233 74.0284 22.416 77.9409 22.4288C81.8784 21.5883 90.951 22.1335 93.7435 21.258C94.4085 24.3628 96.9035 29.8683 96.576 32.11C95.566 33.4798 92.9584 32.7103 91.5334 33.0638C90.6784 33.7083 90.846 33.401 90.606 34.2348C90.736 34.5865 90.801 34.8853 91.0735 35.1315L90.5385 35.0838C90.1585 34.2853 90.386 33.6575 90.146 32.6718C89.346 29.4 87.3634 26.9175 84.1609 25.7805C81.9309 24.982 79.4734 25.1138 77.3409 26.1463C74.2809 27.6558 71.501 31.775 72.206 35.252C70.7935 35.7488 62.6175 33.9188 60.5 34C51.7 34.3383 44.2925 34.53 35.5 35C35.335 32.7405 35.49 34.6667 35 32.5C34.6608 31 33.9609 31.28 34.4709 31.2625Z" fill="#B8B7B8"/>
<path d="M56 11.9943C63.0475 11.3834 70.246 11.9998 77.3235 11.8907C79.4935 11.8572 79 12 81 11.8907L82.595 11.8712C83.3175 11.9765 84.4535 11.8712 84.4535 11.8712C86.3735 13.1784 88.5034 16.139 89.9959 18.0451L64.4059 19.3769C61.0584 19.575 41.2259 20.8845 39.5359 19.9721L39.0284 19.3427C39.2234 18.0124 44.8984 14.8424 46.1284 14.0934L50 12.5C54 11.9934 52.435 12.2019 56 11.9943Z" fill="#313031"/>
<path d="M22.7435 28.6758C25.1435 27.9935 27.7235 28.6628 29.491 30.4253C31.2585 32.1878 31.9334 34.7678 31.2559 37.1698C30.5809 39.5718 28.6585 41.42 26.231 42.0015C22.586 42.8748 18.911 40.6728 17.961 37.0465C17.011 33.4203 19.136 29.7005 22.7435 28.6758Z" fill="#0F100F"/>
<path d="M23.7735 30.9198C26.1935 30.4603 28.5309 32.046 28.9984 34.4658C29.4659 36.8855 27.8884 39.2275 25.4684 39.703C23.8734 40.0168 22.2334 39.4393 21.1859 38.1945C20.1609 36.979 19.861 35.312 20.3935 33.815C20.926 32.3183 22.211 31.216 23.7735 30.9198Z" fill="white"/>
<path d="M79.486 28.6533C81.906 28.0535 84.461 28.8113 86.1635 30.6338C87.8635 32.456 88.446 35.057 87.681 37.43C86.916 39.8033 84.926 41.5763 82.481 42.063C78.821 42.7918 75.2484 40.4645 74.4334 36.8215C73.6209 33.1783 75.8635 29.5515 79.486 28.6533Z" fill="#0F100F"/>
<path d="M80.4084 30.9158C82.2209 30.6173 84.0309 31.4598 84.9684 33.0383C85.9084 34.617 85.7834 36.6098 84.6559 38.06C83.9909 38.9165 83.0359 39.5013 81.9709 39.7048C80.3909 40.0068 78.771 39.4353 77.731 38.2093C76.6885 36.983 76.3885 35.2918 76.9435 33.782C77.496 32.272 78.8209 31.1773 80.4084 30.9158Z" fill="white"/>
</svg>
